<svg xmlns="http://www.w3.org/2000/svg" xmlns:xlink="http://www.w3.org/1999/xlink" width="500" zoomAndPan="magnify" viewBox="0 0 375 187.499995" height="250" preserveAspectRatio="xMidYMid meet" version="1.0"><defs><clipPath id="8b38e315b8"><path d="M 86.28125 0 L 288.992188 0 L 288.992188 187 L 86.28125 187 Z M 86.28125 0 " clip-rule="nonzero"/></clipPath></defs><g clip-path="url(#8b38e315b8)"><path fill="#ffffff" d="M 215.953125 146.835938 C 221.429688 154.183594 227.078125 164.699219 232.21875 179.777344 C 204.332031 168.136719 193.613281 154.289062 189.609375 144.230469 L 189.609375 184.847656 C 189.609375 186.011719 188.664062 186.960938 187.496094 186.960938 C 186.328125 186.960938 185.382812 186.011719 185.382812 184.847656 L 185.382812 144.234375 C 181.375 154.289062 170.660156 168.136719 142.773438 179.777344 C 147.914062 164.699219 153.5625 154.183594 159.039062 146.835938 C 143.304688 149.5625 119.964844 147.144531 86.339844 130.394531 C 111.675781 117.769531 131.230469 113.269531 146.03125 113.023438 C 132.40625 99.875 117.324219 77.167969 103.976562 38.179688 C 136.816406 51.890625 156.933594 67.273438 169.121094 81.449219 C 168.703125 61.875 173.054688 35.328125 187.496094 -0.00390625 C 201.933594 35.328125 206.289062 61.875 205.871094 81.449219 C 218.058594 67.273438 238.171875 51.890625 271.007812 38.179688 C 257.667969 77.167969 242.585938 99.875 228.957031 113.023438 C 243.765625 113.269531 263.316406 117.769531 288.652344 130.394531 C 255.027344 147.144531 231.679688 149.5625 215.953125 146.835938 " fill-opacity="1" fill-rule="nonzero"/></g></svg>
